<svg xmlns="http://www.w3.org/2000/svg" width="161.247" height="52.017" viewBox="0 0 161.247 52.017">
  <g id="HEF-LOGO" transform="translate(0 0)">
    <path id="Path_376" data-name="Path 376" d="M-52.46-17.973h3.281v6.533H-43.5v-6.533h3.269V-.658H-43.5V-8.25h-5.683V-.658H-52.46Zm24.132-.436a8.354,8.354,0,0,1,6.2,2.66,8.943,8.943,0,0,1,2.593,6.486A8.843,8.843,0,0,1-22.1-2.847,8.348,8.348,0,0,1-28.3-.222a8.347,8.347,0,0,1-6.353-2.7,9.039,9.039,0,0,1-2.53-6.4,9.118,9.118,0,0,1,1.178-4.567,8.807,8.807,0,0,1,3.24-3.3A8.582,8.582,0,0,1-28.328-18.408Zm-.035,3.225a5.276,5.276,0,0,0-3.962,1.671,5.884,5.884,0,0,0-1.606,4.249,5.584,5.584,0,0,0,2.022,4.544,5.476,5.476,0,0,0,3.6,1.307,5.213,5.213,0,0,0,3.916-1.7,5.822,5.822,0,0,0,1.617-4.179A5.845,5.845,0,0,0-24.4-13.47,5.263,5.263,0,0,0-28.363-15.183Zm13.516-2.79h3.165L-7.754-5.9l3.985-12.077H-.65L2.215-.658H-.9L-2.729-11.593-6.345-.658H-9.2l-3.57-10.935L-14.628-.658h-3.154Zm21.29,0H9.608L13.536-5.9l3.985-12.077H20.64L23.5-.658H20.386L18.561-11.593,14.945-.658H12.092L8.522-11.593,6.662-.658H3.509Zm19.661,0H35.38v3.225H29.316v3.131H35.38V-8.45H29.316v4.555H35.38V-.658H26.1Zm21.2,2.354L44.91-13.464q-1.259-1.789-2.565-1.789a1.539,1.539,0,0,0-1.04.347,1.018,1.018,0,0,0-.4.783,1.358,1.358,0,0,0,.289.824,22.117,22.117,0,0,0,2.368,2.225Q45.407-9.5,45.8-9.086a6.892,6.892,0,0,1,1.392,1.936,4.92,4.92,0,0,1,.41,2.019,4.675,4.675,0,0,1-1.444,3.52A5.205,5.205,0,0,1,42.392-.222a5.521,5.521,0,0,1-3.159-.906,7.127,7.127,0,0,1-2.3-2.849l2.715-1.671q1.224,2.3,2.819,2.3a2.049,2.049,0,0,0,1.4-.494,1.481,1.481,0,0,0,.566-1.142A2,2,0,0,0,44-6.166a12.438,12.438,0,0,0-1.883-1.8,19.192,19.192,0,0,1-3.581-3.561,4.587,4.587,0,0,1-.809-2.5,4.128,4.128,0,0,1,1.346-3.09,4.617,4.617,0,0,1,3.321-1.289,5.157,5.157,0,0,1,2.42.6A8.863,8.863,0,0,1,47.3-15.618Z" transform="translate(113.645 37.802)" fill="#0a0708"/>
    <path id="Path_377" data-name="Path 377" d="M-118.414-18.214h4.127v1.435h-2.7v1.393h2.7v1.409h-2.7v2.027h2.7v1.44h-4.127Zm9.431,1.047-1.064.958a1.507,1.507,0,0,0-1.141-.8.685.685,0,0,0-.463.154.453.453,0,0,0-.18.348.6.6,0,0,0,.128.367,9.837,9.837,0,0,0,1.054.99q.822.7,1,.885a3.066,3.066,0,0,1,.619.861,2.189,2.189,0,0,1,.182.9,2.08,2.08,0,0,1-.642,1.566,2.316,2.316,0,0,1-1.675.618,2.456,2.456,0,0,1-1.406-.4,3.171,3.171,0,0,1-1.025-1.267l1.208-.744q.545,1.021,1.254,1.021a.912.912,0,0,0,.622-.22.659.659,0,0,0,.252-.508.888.888,0,0,0-.19-.524,5.534,5.534,0,0,0-.838-.8,8.538,8.538,0,0,1-1.593-1.584,2.041,2.041,0,0,1-.36-1.113,1.837,1.837,0,0,1,.6-1.375,2.054,2.054,0,0,1,1.478-.573,2.294,2.294,0,0,1,1.077.267A3.943,3.943,0,0,1-108.984-17.167Zm.766-1.047h4.178v1.445h-1.377v6.258h-1.46v-6.258h-1.341Zm7.467,0h1.46l2.909,7.7h-1.5l-.591-1.587h-3.084l-.617,1.587h-1.5Zm.74,2.042-1.007,2.645h2.009Zm4-2.042h4.178v1.445h-1.377v6.258h-1.46v-6.258h-1.341Zm5.17,0h4.127v1.435h-2.7v1.393h2.7v1.409h-2.7v2.027h2.7v1.44h-4.127Zm9.431,1.047-1.064.958a1.507,1.507,0,0,0-1.141-.8.685.685,0,0,0-.463.154.453.453,0,0,0-.18.348.6.6,0,0,0,.128.367,9.84,9.84,0,0,0,1.054.99q.822.7,1,.885a3.066,3.066,0,0,1,.619.861,2.189,2.189,0,0,1,.182.9,2.08,2.08,0,0,1-.642,1.566,2.316,2.316,0,0,1-1.675.618,2.456,2.456,0,0,1-1.406-.4,3.171,3.171,0,0,1-1.025-1.267l1.208-.744q.545,1.021,1.254,1.021a.912.912,0,0,0,.622-.22.659.659,0,0,0,.252-.508.888.888,0,0,0-.19-.524,5.533,5.533,0,0,0-.838-.8,8.537,8.537,0,0,1-1.593-1.584,2.041,2.041,0,0,1-.36-1.113,1.837,1.837,0,0,1,.6-1.375,2.054,2.054,0,0,1,1.478-.573,2.294,2.294,0,0,1,1.077.267A3.943,3.943,0,0,1-81.412-17.167Zm9.194,3.629.858,1-.391.361-.385.356,1.213,1.309h-1.742l-.5-.524a4.351,4.351,0,0,1-2.215.717,1.939,1.939,0,0,1-1.406-.518,1.768,1.768,0,0,1-.537-1.33,2.343,2.343,0,0,1,.3-1.157,4,4,0,0,1,1.038-1.126,3.16,3.16,0,0,1-.725-1.77,1.715,1.715,0,0,1,.483-1.126,1.709,1.709,0,0,1,1.362-.555,1.706,1.706,0,0,1,1.364.55,1.7,1.7,0,0,1,.475,1.11,1.747,1.747,0,0,1-.218.843,6.31,6.31,0,0,1-1,1.194q.92,1.1,1.187,1.377Q-72.891-12.951-72.217-13.538Zm-2.734-1.7a1.328,1.328,0,0,0,.57-.88.434.434,0,0,0-.128-.325.464.464,0,0,0-.339-.126.443.443,0,0,0-.331.141.461.461,0,0,0-.136.33A1.49,1.49,0,0,0-74.951-15.235Zm.853,3.184a15.954,15.954,0,0,1-1.115-1.32q-.766.644-.766,1.126a.553.553,0,0,0,.208.414.755.755,0,0,0,.527.189A2.4,2.4,0,0,0-74.1-12.051Zm7.267-6.164h3.752v1.43h-2.328v1.4h2.328v1.409h-2.328v3.467h-1.424Zm7.334,0h1.46l2.909,7.7h-1.5l-.591-1.587H-60.3l-.617,1.587h-1.5Zm.74,2.042-1.007,2.645h2.009Zm11.692-.686-1.007.979a3.1,3.1,0,0,0-2.313-1.1,2.464,2.464,0,0,0-1.827.754,2.546,2.546,0,0,0-.743,1.859A2.786,2.786,0,0,0-52.626-13a2.378,2.378,0,0,0,.93.937,2.665,2.665,0,0,0,1.336.34,2.714,2.714,0,0,0,1.146-.238,4.111,4.111,0,0,0,1.141-.867l.976,1.037a5.358,5.358,0,0,1-1.583,1.155,4.251,4.251,0,0,1-1.7.322,3.877,3.877,0,0,1-2.886-1.139,3.983,3.983,0,0,1-1.123-2.92,4.055,4.055,0,0,1,.511-2.048,3.836,3.836,0,0,1,1.465-1.44,4.071,4.071,0,0,1,2.053-.545,4.22,4.22,0,0,1,1.8.4A4.316,4.316,0,0,1-47.066-16.858Zm1.156-1.356h1.429v7.7h-1.429Zm3.048,0h1.439v6.305h2.1v1.4h-3.536Zm4.528,0h1.429v7.7h-1.429Zm2.3,0h4.178v1.445h-1.377v6.258h-1.46v-6.258h-1.341Zm5.062,0h1.429v7.7h-1.429Zm3.053,0h4.127v1.435h-2.7v1.393h2.7v1.409h-2.7v2.027h2.7v1.44h-4.127Zm9.431,1.047-1.064.958a1.507,1.507,0,0,0-1.141-.8.685.685,0,0,0-.463.154.453.453,0,0,0-.18.348.6.6,0,0,0,.128.367,9.839,9.839,0,0,0,1.054.99q.822.7,1,.885a3.066,3.066,0,0,1,.619.861,2.189,2.189,0,0,1,.182.9,2.08,2.08,0,0,1-.642,1.566,2.316,2.316,0,0,1-1.675.618,2.456,2.456,0,0,1-1.406-.4A3.171,3.171,0,0,1-23.1-11.988l1.208-.744q.545,1.021,1.254,1.021a.912.912,0,0,0,.622-.22.659.659,0,0,0,.252-.508.888.888,0,0,0-.19-.524,5.534,5.534,0,0,0-.838-.8,8.539,8.539,0,0,1-1.593-1.584,2.041,2.041,0,0,1-.36-1.113,1.836,1.836,0,0,1,.6-1.375,2.054,2.054,0,0,1,1.478-.573,2.294,2.294,0,0,1,1.077.267A3.943,3.943,0,0,1-18.486-17.167Z" transform="translate(179.6 62.335)" fill="#0a0708"/>
    <g id="HEF-Brandmark-2" transform="translate(0)">
      <g id="Path_997" transform="translate(0 29.487)">
        <path id="Path_1015" data-name="Path 1015" d="M4391.005-3332.305H4373.8v-8.969h1.051v7.9h15.1v-15.712l8.777-5.747.088,21.995h-1.05V-3352.9l-6.765,4.41Z" transform="translate(-4373.8 3354.835)" fill="#fff"/>
      </g>
      <g id="Path_998" transform="translate(23.886 15.156)">
        <path id="Path_1016" data-name="Path 1016" d="M4488.55-3385.473h-1.05V-3421.8l8.718,7.685v28.642h-1.051v-28.149l-6.618-5.844Z" transform="translate(-4487.5 3421.8)" fill="#fff"/>
      </g>
      <g id="Path_999" transform="translate(28.255 8.798)">
        <path id="Path_1017" data-name="Path 1017" d="M4533.068-3408.281h-17.331v-35.641l-7.437-6.786.694-.792,7.793,7.107v35.042h15.23v-16.868h1.05Z" transform="translate(-4508.301 3451.501)" fill="#fff"/>
      </g>
      <g id="Path_1000" transform="translate(20.272)">
        <path id="Path_1018" data-name="Path 1018" d="M4471.351-3459.784h-1.05v-25.345l8.844-7.471v19.758h-1.05v-17.467l-6.744,5.672Z" transform="translate(-4470.301 3492.6)" fill="#fff"/>
      </g>
      <g id="Path_1001" transform="translate(0.504 40.757)">
        <path id="Path_1019" data-name="Path 1019" d="M4376.851-3298.412h-.651l.021-1.5c10.567.085,15.8-2.248,15.839-2.291l.609,1.37C4392.459-3300.723,4387.313-3298.412,4376.851-3298.412Z" transform="translate(-4376.2 3302.201)" fill="#fff"/>
      </g>
      <g id="Path_1006" transform="translate(36.07 35.456)">
        <path id="Path_1020" data-name="Path 1020" d="M4545.837-3324.211l-.336-1.456c10.566-2.526,16.469-.6,16.7-.535l-.462,1.413C4561.7-3324.79,4555.94-3326.63,4545.837-3324.211Z" transform="translate(-4545.5 3326.966)" fill="#fff"/>
      </g>
      <g id="Path_1009" transform="translate(36.07 40.016)">
        <path id="Path_1021" data-name="Path 1021" d="M4545.837-3302.912l-.336-1.456c10.566-2.526,16.469-.6,16.7-.535l-.462,1.413C4561.7-3303.511,4555.94-3305.352,4545.837-3302.912Z" transform="translate(-4545.5 3305.666)" fill="#fff"/>
      </g>
      <g id="Path_1011" transform="translate(36.07 44.398)">
        <path id="Path_1022" data-name="Path 1022" d="M4545.837-3282.434l-.336-1.456c10.566-2.526,16.469-.621,16.7-.535l-.462,1.413.23-.707-.23.707C4561.7-3283.012,4555.94-3284.853,4545.837-3282.434Z" transform="translate(-4545.5 3285.194)" fill="#fff"/>
      </g>
      <g id="Path_1002" transform="translate(0.504 42.898)">
        <path id="Path_1023" data-name="Path 1023" d="M4376.851-3288.411h-.651l.021-1.5c10.567.085,15.8-2.248,15.839-2.291l.609,1.37C4392.459-3290.723,4387.313-3288.411,4376.851-3288.411Z" transform="translate(-4376.2 3292.2)" fill="#fff"/>
      </g>
      <g id="Path_1003" transform="translate(0.504 45.039)">
        <path id="Path_1024" data-name="Path 1024" d="M4376.851-3278.411h-.651l.021-1.5c10.567.086,15.8-2.247,15.839-2.291l.609,1.37C4392.459-3280.723,4387.313-3278.411,4376.851-3278.411Z" transform="translate(-4376.2 3282.2)" fill="#fff"/>
      </g>
      <g id="Path_1004" transform="translate(0.504 47.393)">
        <path id="Path_1025" data-name="Path 1025" d="M4376.851-3267.411h-.651l.021-1.5c10.567.086,15.8-2.247,15.839-2.29l.609,1.37C4392.459-3269.745,4387.313-3267.411,4376.851-3267.411Z" transform="translate(-4376.2 3271.2)" fill="#fff"/>
      </g>
      <g id="Path_1007" transform="translate(36.07 33.315)">
        <path id="Path_1026" data-name="Path 1026" d="M4545.837-3334.212l-.336-1.455c10.566-2.526,16.469-.6,16.7-.536l-.462,1.413C4561.7-3334.79,4555.94-3336.631,4545.837-3334.212Z" transform="translate(-4545.5 3336.966)" fill="#fff"/>
      </g>
      <g id="Path_1008" transform="translate(36.07 37.762)">
        <path id="Path_1027" data-name="Path 1027" d="M4545.837-3313.433l-.336-1.456c10.566-2.526,16.469-.621,16.7-.535l-.462,1.413.23-.706-.23.706C4561.7-3314.012,4555.94-3315.853,4545.837-3313.433Z" transform="translate(-4545.5 3316.194)" fill="#fff"/>
      </g>
      <g id="Path_1010" transform="translate(36.07 42.257)">
        <path id="Path_1028" data-name="Path 1028" d="M4545.837-3292.433l-.336-1.456c10.566-2.526,16.469-.621,16.7-.535l-.462,1.413.23-.707-.23.707C4561.7-3293.011,4555.94-3294.853,4545.837-3292.433Z" transform="translate(-4545.5 3295.194)" fill="#fff"/>
      </g>
      <g id="Path_1012" transform="translate(36.07 46.759)">
        <path id="Path_1029" data-name="Path 1029" d="M4545.837-3271.412l-.336-1.456c10.566-2.526,16.469-.6,16.7-.535l-.462,1.413.23-.706-.23.706C4561.7-3271.99,4555.94-3273.831,4545.837-3271.412Z" transform="translate(-4545.5 3274.166)" fill="#fff"/>
      </g>
      <g id="Path_1013" transform="translate(36.07 49.129)">
        <path id="Path_1030" data-name="Path 1030" d="M4545.837-3260.334l-.336-1.456c10.566-2.526,16.469-.621,16.7-.535l-.462,1.412.23-.707-.23.707C4561.7-3260.912,4555.94-3262.753,4545.837-3260.334Z" transform="translate(-4545.5 3263.094)" fill="#fff"/>
      </g>
      <g id="Path_1014" transform="translate(36.28 50.519)">
        <rect id="Rectangle_1225" data-name="Rectangle 1225" width="16.176" height="0.642" fill="#fff"/>
      </g>
    </g>
  </g>
</svg>
